<mxfile host="app.diagrams.net" modified="2024-09-13T10:10:44.938Z" agent="Mozilla/5.0 (Windows NT 10.0; Win64; x64) AppleWebKit/537.36 (KHTML, like Gecko) Chrome/125.0.0.0 Safari/537.36" version="24.6.4" etag="H9m4JTt0_p_zxP1UkdYr" type="github">
  <diagram name="第 1 页" id="YnJb98kPL6RZc6PC06HE">
    <mxGraphModel>
      <root>
        <mxCell id="0" />
        <mxCell id="1" parent="0" />
      </root>
    </mxGraphModel>
  </diagram>
</mxfile>
